%TF.GenerationSoftware,KiCad,Pcbnew,9.0.0*%
%TF.CreationDate,2025-04-02T13:50:30-07:00*%
%TF.ProjectId,Power Distribution,506f7765-7220-4446-9973-747269627574,V3.2*%
%TF.SameCoordinates,Original*%
%TF.FileFunction,Copper,L1,Top*%
%TF.FilePolarity,Positive*%
%FSLAX46Y46*%
G04 Gerber Fmt 4.6, Leading zero omitted, Abs format (unit mm)*
G04 Created by KiCad (PCBNEW 9.0.0) date 2025-04-02 13:50:30*
%MOMM*%
%LPD*%
G01*
G04 APERTURE LIST*
%TA.AperFunction,ComponentPad*%
%ADD10C,1.676400*%
%TD*%
%TA.AperFunction,SMDPad,CuDef*%
%ADD11R,1.150000X1.150000*%
%TD*%
%TA.AperFunction,ComponentPad*%
%ADD12C,1.508000*%
%TD*%
%TA.AperFunction,ComponentPad*%
%ADD13C,1.750000*%
%TD*%
%TA.AperFunction,ComponentPad*%
%ADD14C,1.930400*%
%TD*%
%TA.AperFunction,ComponentPad*%
%ADD15C,4.000000*%
%TD*%
%TA.AperFunction,ComponentPad*%
%ADD16C,2.000000*%
%TD*%
%TA.AperFunction,SMDPad,CuDef*%
%ADD17R,2.810000X1.600000*%
%TD*%
%TA.AperFunction,ComponentPad*%
%ADD18C,3.600000*%
%TD*%
%TA.AperFunction,ComponentPad*%
%ADD19R,1.508000X1.508000*%
%TD*%
%TA.AperFunction,Conductor*%
%ADD20C,0.200000*%
%TD*%
G04 APERTURE END LIST*
D10*
%TO.P,REF\u002A\u002A,1*%
%TO.N,N/C*%
X131730000Y-55460000D03*
%TO.P,REF\u002A\u002A,2*%
X134270000Y-55460000D03*
%TO.P,REF\u002A\u002A,3*%
X131730000Y-58000000D03*
%TO.P,REF\u002A\u002A,4*%
X134270000Y-58000000D03*
%TO.P,REF\u002A\u002A,5*%
X131730000Y-60540000D03*
%TO.P,REF\u002A\u002A,6*%
X134270000Y-60540000D03*
%TD*%
D11*
%TO.P,REF\u002A\u002A,1*%
%TO.N,N/C*%
X118000000Y-76175000D03*
%TO.P,REF\u002A\u002A,2*%
X118000000Y-73825000D03*
%TD*%
D12*
%TO.P,,3*%
%TO.N,N/C*%
X118000000Y-81500000D03*
%TD*%
D13*
%TO.P,IC3,1*%
%TO.N,N/C*%
X111100000Y-31650000D03*
%TO.P,IC3,2*%
X111100000Y-34190000D03*
%TO.P,IC3,3*%
X111100000Y-36730000D03*
%TO.P,IC3,4*%
X111100000Y-39270000D03*
%TO.P,IC3,5*%
X111100000Y-41810000D03*
%TO.P,IC3,6*%
X111100000Y-44350000D03*
%TO.P,IC3,7*%
X104600000Y-45100000D03*
%TO.P,IC3,8*%
X102060000Y-45100000D03*
%TO.P,IC3,9*%
X99520000Y-45100000D03*
%TO.P,IC3,10*%
X96980000Y-45100000D03*
%TO.P,IC3,11*%
X94440000Y-45100000D03*
%TO.P,IC3,12*%
X91900000Y-45100000D03*
%TO.P,IC3,13*%
X89360000Y-45100000D03*
%TO.P,IC3,14*%
X86820000Y-45100000D03*
%TO.P,IC3,15*%
X84280000Y-45100000D03*
%TD*%
D12*
%TO.P,,2*%
%TO.N,N/C*%
X115000000Y-55000000D03*
%TD*%
%TO.P,,2*%
%TO.N,N/C*%
X88540000Y-28500000D03*
%TD*%
%TO.P,,1*%
%TO.N,N/C*%
X91500000Y-28500000D03*
%TD*%
%TO.P,,2*%
%TO.N,N/C*%
X130500000Y-90000000D03*
%TD*%
%TO.P,,1*%
%TO.N,N/C*%
X86000000Y-28500000D03*
%TD*%
D14*
%TO.P,REF\u002A\u002A,1*%
%TO.N,N/C*%
X120650000Y-45890000D03*
%TO.P,REF\u002A\u002A,2*%
X123190000Y-45890000D03*
%TO.P,REF\u002A\u002A,3*%
X125730000Y-45890000D03*
%TO.P,REF\u002A\u002A,4*%
X128270000Y-45890000D03*
%TO.P,REF\u002A\u002A,5*%
X130810000Y-45890000D03*
%TO.P,REF\u002A\u002A,6*%
X133350000Y-45890000D03*
%TO.P,REF\u002A\u002A,7*%
X130810000Y-28110000D03*
%TO.P,REF\u002A\u002A,8*%
X128270000Y-28110000D03*
%TO.P,REF\u002A\u002A,9*%
X125730000Y-28110000D03*
%TO.P,REF\u002A\u002A,10*%
X123190000Y-28110000D03*
D15*
%TO.P,REF\u002A\u002A,SH1*%
X116205000Y-44620000D03*
%TO.P,REF\u002A\u002A,SH2*%
X137795000Y-44620000D03*
%TO.P,REF\u002A\u002A,SH3*%
X137795000Y-29380000D03*
%TO.P,REF\u002A\u002A,SH4*%
X116205000Y-29380000D03*
%TD*%
D12*
%TO.P,,1*%
%TO.N,N/C*%
X115460000Y-81500000D03*
%TD*%
%TO.P,,1*%
%TO.N,N/C*%
X112460000Y-55000000D03*
%TD*%
%TO.P,,4*%
%TO.N,N/C*%
X118000000Y-78960000D03*
%TD*%
D16*
%TO.P,TP4056 & MT3608,1*%
%TO.N,N/C*%
X112800000Y-95200000D03*
%TO.P,TP4056 & MT3608,2*%
X121300000Y-95200000D03*
%TO.P,TP4056 & MT3608,3*%
X125300000Y-95200000D03*
%TO.P,TP4056 & MT3608,4*%
X133800000Y-95200000D03*
%TD*%
D17*
%TO.P,REF\u002A\u002A,1*%
%TO.N,N/C*%
X122000000Y-76353000D03*
%TO.P,REF\u002A\u002A,2*%
X122000000Y-73647000D03*
%TD*%
D18*
%TO.P,REF\u002A\u002A,P$1*%
%TO.N,N/C*%
X133000000Y-50500000D03*
%TD*%
D12*
%TO.P,,2*%
%TO.N,N/C*%
X94040000Y-28500000D03*
%TD*%
%TO.P,,2*%
%TO.N,N/C*%
X115460000Y-78960000D03*
%TD*%
%TO.P,,1*%
%TO.N,N/C*%
X127960000Y-90000000D03*
%TD*%
D19*
%TO.P,REF\u002A\u002A,1*%
%TO.N,N/C*%
X105730000Y-55370000D03*
D12*
%TO.P,REF\u002A\u002A,2*%
X108270000Y-55370000D03*
%TO.P,REF\u002A\u002A,3*%
X105730000Y-57910000D03*
%TO.P,REF\u002A\u002A,4*%
X108270000Y-57910000D03*
%TO.P,REF\u002A\u002A,5*%
X105730000Y-60450000D03*
%TO.P,REF\u002A\u002A,6*%
X108270000Y-60450000D03*
%TO.P,REF\u002A\u002A,7*%
X105730000Y-62990000D03*
%TO.P,REF\u002A\u002A,8*%
X108270000Y-62990000D03*
%TO.P,REF\u002A\u002A,9*%
X105730000Y-65530000D03*
%TO.P,REF\u002A\u002A,10*%
X108270000Y-65530000D03*
%TO.P,REF\u002A\u002A,11*%
X105730000Y-68070000D03*
%TO.P,REF\u002A\u002A,12*%
X108270000Y-68070000D03*
%TO.P,REF\u002A\u002A,13*%
X105730000Y-70610000D03*
%TO.P,REF\u002A\u002A,14*%
X108270000Y-70610000D03*
%TO.P,REF\u002A\u002A,15*%
X105730000Y-73150000D03*
%TO.P,REF\u002A\u002A,16*%
X108270000Y-73150000D03*
%TO.P,REF\u002A\u002A,17*%
X105730000Y-75690000D03*
%TO.P,REF\u002A\u002A,18*%
X108270000Y-75690000D03*
%TO.P,REF\u002A\u002A,19*%
X105730000Y-78230000D03*
%TO.P,REF\u002A\u002A,20*%
X108270000Y-78230000D03*
%TO.P,REF\u002A\u002A,21*%
X105730000Y-80770000D03*
%TO.P,REF\u002A\u002A,22*%
X108270000Y-80770000D03*
%TO.P,REF\u002A\u002A,23*%
X105730000Y-83310000D03*
%TO.P,REF\u002A\u002A,24*%
X108270000Y-83310000D03*
%TO.P,REF\u002A\u002A,25*%
X105730000Y-85850000D03*
%TO.P,REF\u002A\u002A,26*%
X108270000Y-85850000D03*
%TO.P,REF\u002A\u002A,27*%
X105730000Y-88390000D03*
%TO.P,REF\u002A\u002A,28*%
X108270000Y-88390000D03*
%TO.P,REF\u002A\u002A,29*%
X105730000Y-90930000D03*
%TO.P,REF\u002A\u002A,30*%
X108270000Y-90930000D03*
%TO.P,REF\u002A\u002A,31*%
X105730000Y-93470000D03*
%TO.P,REF\u002A\u002A,32*%
X108270000Y-93470000D03*
%TO.P,REF\u002A\u002A,33*%
X105730000Y-96010000D03*
%TO.P,REF\u002A\u002A,34*%
X108270000Y-96010000D03*
%TO.P,REF\u002A\u002A,35*%
X105730000Y-98550000D03*
%TO.P,REF\u002A\u002A,36*%
X108270000Y-98550000D03*
%TO.P,REF\u002A\u002A,37*%
X105730000Y-101090000D03*
%TO.P,REF\u002A\u002A,38*%
X108270000Y-101090000D03*
%TO.P,REF\u002A\u002A,39*%
X105730000Y-103630000D03*
%TO.P,REF\u002A\u002A,40*%
X108270000Y-103630000D03*
%TD*%
D20*
%TO.N,*%
X108000000Y-56500000D02*
X125000000Y-56500000D01*
X105000000Y-61500000D02*
X108500000Y-61500000D01*
X115460000Y-92540000D02*
X112800000Y-95200000D01*
X121300000Y-84800000D02*
X122000000Y-84100000D01*
X109500000Y-40000000D02*
X108000000Y-41500000D01*
X107200000Y-67000000D02*
X108270000Y-68070000D01*
X130500000Y-44500000D02*
X131000000Y-44000000D01*
X94500000Y-45040000D02*
X94500000Y-44000000D01*
X112450000Y-33000000D02*
X112500000Y-33000000D01*
X103500000Y-67000000D02*
X104500000Y-68000000D01*
X107500000Y-53500000D02*
X107000000Y-54000000D01*
X130500000Y-45580000D02*
X130500000Y-44500000D01*
X108000000Y-41500000D02*
X108000000Y-47000000D01*
X110000000Y-90120000D02*
X108270000Y-88390000D01*
X107500000Y-53500000D02*
X125500000Y-53500000D01*
X105730000Y-57910000D02*
X107000000Y-56640000D01*
X135000000Y-43000000D02*
X135500000Y-43500000D01*
X119500000Y-53000000D02*
X120500000Y-53000000D01*
X118175000Y-73825000D02*
X118353000Y-73647000D01*
X133500000Y-99500000D02*
X110500000Y-99500000D01*
X109000000Y-61500000D02*
X109500000Y-61000000D01*
X128270000Y-45890000D02*
X128270000Y-43230000D01*
X109000000Y-42500000D02*
X109000000Y-51500000D01*
X107000000Y-59180000D02*
X107000000Y-57500000D01*
X94440000Y-45100000D02*
X94500000Y-45040000D01*
X130810000Y-45890000D02*
X130500000Y-45580000D01*
X104500000Y-61000000D02*
X105000000Y-61500000D01*
X135000000Y-45000000D02*
X135000000Y-47000000D01*
X108000000Y-47000000D02*
X107000000Y-48000000D01*
X104500000Y-51500000D02*
X104000000Y-51500000D01*
X107500000Y-42500000D02*
X107500000Y-41000000D01*
X118000000Y-81500000D02*
X121300000Y-84800000D01*
X104000000Y-52500000D02*
X104000000Y-66500000D01*
X105000000Y-52500000D02*
X104500000Y-53000000D01*
X134000000Y-100000000D02*
X107500000Y-100000000D01*
X107140000Y-102500000D02*
X108270000Y-103630000D01*
X112500000Y-30500000D02*
X113000000Y-31000000D01*
X135500000Y-43500000D02*
X135500000Y-46000000D01*
X89360000Y-30640000D02*
X91500000Y-28500000D01*
X110000000Y-99000000D02*
X110000000Y-90120000D01*
X118000000Y-73825000D02*
X118175000Y-73825000D01*
X107000000Y-89660000D02*
X105730000Y-88390000D01*
X109500000Y-59140000D02*
X108270000Y-57910000D01*
X109500000Y-38330000D02*
X109500000Y-40000000D01*
X105730000Y-55370000D02*
X105730000Y-53270000D01*
X84280000Y-45100000D02*
X84280000Y-30220000D01*
X131730000Y-54730000D02*
X131730000Y-55460000D01*
X109500000Y-62000000D02*
X109500000Y-68250000D01*
X109500000Y-61000000D02*
X109500000Y-59140000D01*
X110000000Y-68750000D02*
X117250000Y-68750000D01*
X122000000Y-84100000D02*
X122000000Y-76353000D01*
X128270000Y-43230000D02*
X128500000Y-43000000D01*
X128500000Y-43000000D02*
X135000000Y-43000000D01*
X112090000Y-55370000D02*
X112460000Y-55000000D01*
X135500000Y-46000000D02*
X136500000Y-47000000D01*
X104500000Y-49000000D02*
X104500000Y-50500000D01*
X113000000Y-31000000D02*
X113000000Y-51000000D01*
X125500000Y-53500000D02*
X130000000Y-58000000D01*
X104000000Y-68500000D02*
X104000000Y-101500000D01*
X109000000Y-38000000D02*
X109500000Y-37500000D01*
X107000000Y-57500000D02*
X108000000Y-56500000D01*
X107000000Y-48000000D02*
X105500000Y-48000000D01*
X109500000Y-68250000D02*
X110000000Y-68750000D01*
X111100000Y-39270000D02*
X108500000Y-41870000D01*
X115460000Y-81500000D02*
X115460000Y-92540000D01*
X107000000Y-99500000D02*
X107000000Y-89660000D01*
X111100000Y-41810000D02*
X109690000Y-41810000D01*
X103000000Y-67500000D02*
X104000000Y-68500000D01*
X130000000Y-53000000D02*
X131000000Y-54000000D01*
X109000000Y-39500000D02*
X109000000Y-38000000D01*
X104500000Y-52000000D02*
X104000000Y-52500000D01*
X103000000Y-51500000D02*
X103000000Y-67500000D01*
X103500000Y-51000000D02*
X103000000Y-51500000D01*
X132000000Y-57730000D02*
X131730000Y-58000000D01*
X104500000Y-97320000D02*
X105730000Y-98550000D01*
X94500000Y-44000000D02*
X95000000Y-43500000D01*
X129040000Y-60540000D02*
X131730000Y-60540000D01*
X111000000Y-53000000D02*
X112000000Y-53000000D01*
X107000000Y-56640000D02*
X107000000Y-54000000D01*
X111000000Y-52500000D02*
X105000000Y-52500000D01*
X127960000Y-90000000D02*
X127960000Y-92540000D01*
X136199200Y-96800800D02*
X133500000Y-99500000D01*
X105000000Y-102500000D02*
X107140000Y-102500000D01*
X105000000Y-51000000D02*
X104500000Y-51500000D01*
X108500000Y-48000000D02*
X108000000Y-48500000D01*
X106000000Y-48500000D02*
X105000000Y-49500000D01*
X117250000Y-68750000D02*
X118000000Y-69500000D01*
X89360000Y-45100000D02*
X89360000Y-30640000D01*
X105730000Y-60450000D02*
X107000000Y-59180000D01*
X131000000Y-44000000D02*
X134000000Y-44000000D01*
X112500000Y-51000000D02*
X111000000Y-52500000D01*
X108500000Y-52000000D02*
X104500000Y-52000000D01*
X134000000Y-44000000D02*
X135000000Y-45000000D01*
X110500000Y-99500000D02*
X110000000Y-99000000D01*
X112500000Y-33000000D02*
X112500000Y-51000000D01*
X118000000Y-69500000D02*
X118000000Y-73825000D01*
X104500000Y-68000000D02*
X104500000Y-97320000D01*
X84280000Y-30220000D02*
X86000000Y-28500000D01*
X111100000Y-36730000D02*
X109500000Y-38330000D01*
X121300000Y-84800000D02*
X121300000Y-95200000D01*
X120650000Y-45890000D02*
X120650000Y-51000000D01*
X109500000Y-31000000D02*
X110000000Y-30500000D01*
X106000000Y-53000000D02*
X111000000Y-53000000D01*
X118353000Y-73647000D02*
X122000000Y-73647000D01*
X105730000Y-53270000D02*
X106000000Y-53000000D01*
X106500000Y-43500000D02*
X107500000Y-42500000D01*
X130000000Y-58000000D02*
X131730000Y-58000000D01*
X119000000Y-53000000D02*
X119500000Y-53000000D01*
X105000000Y-49500000D02*
X105000000Y-51000000D01*
X104500000Y-50500000D02*
X104000000Y-51000000D01*
X112000000Y-53000000D02*
X113000000Y-53000000D01*
X104000000Y-51000000D02*
X103500000Y-51000000D01*
X135000000Y-47000000D02*
X136199200Y-48199200D01*
X115460000Y-78960000D02*
X118000000Y-78960000D01*
X136199200Y-48199200D02*
X136199200Y-96800800D01*
X103500000Y-52000000D02*
X103500000Y-67000000D01*
X108000000Y-48500000D02*
X106000000Y-48500000D01*
X125000000Y-56500000D02*
X129040000Y-60540000D01*
X108500000Y-61500000D02*
X109000000Y-61500000D01*
X113000000Y-53000000D02*
X119000000Y-53000000D01*
X109000000Y-51500000D02*
X108500000Y-52000000D01*
X104000000Y-51500000D02*
X103500000Y-52000000D01*
X127960000Y-92540000D02*
X125300000Y-95200000D01*
X111100000Y-31650000D02*
X112450000Y-33000000D01*
X120500000Y-53000000D02*
X130000000Y-53000000D01*
X131000000Y-54000000D02*
X131730000Y-54730000D01*
X105500000Y-48000000D02*
X104500000Y-49000000D01*
X107000000Y-99500000D02*
X107500000Y-100000000D01*
X118000000Y-76175000D02*
X118000000Y-78960000D01*
X136500000Y-97500000D02*
X134000000Y-100000000D01*
X108500000Y-41870000D02*
X108500000Y-48000000D01*
X120650000Y-51350000D02*
X120650000Y-51000000D01*
X95000000Y-43500000D02*
X106500000Y-43500000D01*
X108270000Y-55370000D02*
X112090000Y-55370000D01*
X107500000Y-41000000D02*
X109000000Y-39500000D01*
X110000000Y-30500000D02*
X112500000Y-30500000D01*
X104500000Y-53000000D02*
X104500000Y-61000000D01*
X119000000Y-53000000D02*
X120650000Y-51350000D01*
X113000000Y-51000000D02*
X111000000Y-53000000D01*
X136500000Y-47000000D02*
X136500000Y-97500000D01*
X109500000Y-37500000D02*
X109500000Y-31000000D01*
X109690000Y-41810000D02*
X109000000Y-42500000D01*
X104000000Y-101500000D02*
X105000000Y-102500000D01*
X109000000Y-61500000D02*
X109500000Y-62000000D01*
X104000000Y-66500000D02*
X104500000Y-67000000D01*
X104500000Y-67000000D02*
X107200000Y-67000000D01*
%TD*%
M02*
