M48
; DRILL file {KiCad 9.0.0} date 2025-04-02T13:50:56-0700
; FORMAT={-:-/ absolute / metric / decimal}
; #@! TF.CreationDate,2025-04-02T13:50:56-07:00
; #@! TF.GenerationSoftware,Kicad,Pcbnew,9.0.0
; #@! TF.FileFunction,Plated,1,16,PTH
FMAT,2
METRIC
; #@! TA.AperFunction,Plated,PTH,ComponentDrill
T1C1.000
; #@! TA.AperFunction,Plated,PTH,ComponentDrill
T2C2.500
; #@! TA.AperFunction,Plated,PTH,ComponentDrill
T3C3.000
%
G90
G05
T1
X84.28Y-45.1
X86.0Y-28.5
X86.82Y-45.1
X88.54Y-28.5
X89.36Y-45.1
X91.5Y-28.5
X91.9Y-45.1
X94.04Y-28.5
X94.44Y-45.1
X96.98Y-45.1
X99.52Y-45.1
X102.06Y-45.1
X104.6Y-45.1
X105.73Y-55.37
X105.73Y-57.91
X105.73Y-60.45
X105.73Y-62.99
X105.73Y-65.53
X105.73Y-68.07
X105.73Y-70.61
X105.73Y-73.15
X105.73Y-75.69
X105.73Y-78.23
X105.73Y-80.77
X105.73Y-83.31
X105.73Y-85.85
X105.73Y-88.39
X105.73Y-90.93
X105.73Y-93.47
X105.73Y-96.01
X105.73Y-98.55
X105.73Y-101.09
X105.73Y-103.63
X108.27Y-55.37
X108.27Y-57.91
X108.27Y-60.45
X108.27Y-62.99
X108.27Y-65.53
X108.27Y-68.07
X108.27Y-70.61
X108.27Y-73.15
X108.27Y-75.69
X108.27Y-78.23
X108.27Y-80.77
X108.27Y-83.31
X108.27Y-85.85
X108.27Y-88.39
X108.27Y-90.93
X108.27Y-93.47
X108.27Y-96.01
X108.27Y-98.55
X108.27Y-101.09
X108.27Y-103.63
X111.1Y-31.65
X111.1Y-34.19
X111.1Y-36.73
X111.1Y-39.27
X111.1Y-41.81
X111.1Y-44.35
X112.46Y-55.0
X112.8Y-95.2
X115.0Y-55.0
X115.46Y-78.96
X115.46Y-81.5
X118.0Y-78.96
X118.0Y-81.5
X120.65Y-45.89
X121.3Y-95.2
X123.19Y-28.11
X123.19Y-45.89
X125.3Y-95.2
X125.73Y-28.11
X125.73Y-45.89
X127.96Y-90.0
X128.27Y-28.11
X128.27Y-45.89
X130.5Y-90.0
X130.81Y-28.11
X130.81Y-45.89
X131.73Y-55.46
X131.73Y-58.0
X131.73Y-60.54
X133.35Y-45.89
X133.8Y-95.2
X134.27Y-55.46
X134.27Y-58.0
X134.27Y-60.54
T2
X116.205Y-29.38
X116.205Y-44.62
X137.795Y-29.38
X137.795Y-44.62
T3
X133.0Y-50.5
M30
