%TF.GenerationSoftware,KiCad,Pcbnew,9.0.0*%
%TF.CreationDate,2025-04-02T13:50:30-07:00*%
%TF.ProjectId,Power Distribution,506f7765-7220-4446-9973-747269627574,V3.2*%
%TF.SameCoordinates,Original*%
%TF.FileFunction,Copper,L16,Bot*%
%TF.FilePolarity,Positive*%
%FSLAX46Y46*%
G04 Gerber Fmt 4.6, Leading zero omitted, Abs format (unit mm)*
G04 Created by KiCad (PCBNEW 9.0.0) date 2025-04-02 13:50:30*
%MOMM*%
%LPD*%
G01*
G04 APERTURE LIST*
%TA.AperFunction,ComponentPad*%
%ADD10C,1.676400*%
%TD*%
%TA.AperFunction,ComponentPad*%
%ADD11C,1.508000*%
%TD*%
%TA.AperFunction,ComponentPad*%
%ADD12C,1.750000*%
%TD*%
%TA.AperFunction,ComponentPad*%
%ADD13C,1.930400*%
%TD*%
%TA.AperFunction,ComponentPad*%
%ADD14C,4.000000*%
%TD*%
%TA.AperFunction,ComponentPad*%
%ADD15C,2.000000*%
%TD*%
%TA.AperFunction,ComponentPad*%
%ADD16C,3.600000*%
%TD*%
%TA.AperFunction,ComponentPad*%
%ADD17R,1.508000X1.508000*%
%TD*%
%TA.AperFunction,Conductor*%
%ADD18C,0.200000*%
%TD*%
G04 APERTURE END LIST*
D10*
%TO.P,REF\u002A\u002A,1*%
%TO.N,N/C*%
X131730000Y-55460000D03*
%TO.P,REF\u002A\u002A,2*%
X134270000Y-55460000D03*
%TO.P,REF\u002A\u002A,3*%
X131730000Y-58000000D03*
%TO.P,REF\u002A\u002A,4*%
X134270000Y-58000000D03*
%TO.P,REF\u002A\u002A,5*%
X131730000Y-60540000D03*
%TO.P,REF\u002A\u002A,6*%
X134270000Y-60540000D03*
%TD*%
D11*
%TO.P,,3*%
%TO.N,N/C*%
X118000000Y-81500000D03*
%TD*%
D12*
%TO.P,IC3,1*%
%TO.N,N/C*%
X111100000Y-31650000D03*
%TO.P,IC3,2*%
X111100000Y-34190000D03*
%TO.P,IC3,3*%
X111100000Y-36730000D03*
%TO.P,IC3,4*%
X111100000Y-39270000D03*
%TO.P,IC3,5*%
X111100000Y-41810000D03*
%TO.P,IC3,6*%
X111100000Y-44350000D03*
%TO.P,IC3,7*%
X104600000Y-45100000D03*
%TO.P,IC3,8*%
X102060000Y-45100000D03*
%TO.P,IC3,9*%
X99520000Y-45100000D03*
%TO.P,IC3,10*%
X96980000Y-45100000D03*
%TO.P,IC3,11*%
X94440000Y-45100000D03*
%TO.P,IC3,12*%
X91900000Y-45100000D03*
%TO.P,IC3,13*%
X89360000Y-45100000D03*
%TO.P,IC3,14*%
X86820000Y-45100000D03*
%TO.P,IC3,15*%
X84280000Y-45100000D03*
%TD*%
D11*
%TO.P,,2*%
%TO.N,N/C*%
X115000000Y-55000000D03*
%TD*%
%TO.P,,2*%
%TO.N,N/C*%
X88540000Y-28500000D03*
%TD*%
%TO.P,,1*%
%TO.N,N/C*%
X91500000Y-28500000D03*
%TD*%
%TO.P,,2*%
%TO.N,N/C*%
X130500000Y-90000000D03*
%TD*%
%TO.P,,1*%
%TO.N,N/C*%
X86000000Y-28500000D03*
%TD*%
D13*
%TO.P,REF\u002A\u002A,1*%
%TO.N,N/C*%
X120650000Y-45890000D03*
%TO.P,REF\u002A\u002A,2*%
X123190000Y-45890000D03*
%TO.P,REF\u002A\u002A,3*%
X125730000Y-45890000D03*
%TO.P,REF\u002A\u002A,4*%
X128270000Y-45890000D03*
%TO.P,REF\u002A\u002A,5*%
X130810000Y-45890000D03*
%TO.P,REF\u002A\u002A,6*%
X133350000Y-45890000D03*
%TO.P,REF\u002A\u002A,7*%
X130810000Y-28110000D03*
%TO.P,REF\u002A\u002A,8*%
X128270000Y-28110000D03*
%TO.P,REF\u002A\u002A,9*%
X125730000Y-28110000D03*
%TO.P,REF\u002A\u002A,10*%
X123190000Y-28110000D03*
D14*
%TO.P,REF\u002A\u002A,SH1*%
X116205000Y-44620000D03*
%TO.P,REF\u002A\u002A,SH2*%
X137795000Y-44620000D03*
%TO.P,REF\u002A\u002A,SH3*%
X137795000Y-29380000D03*
%TO.P,REF\u002A\u002A,SH4*%
X116205000Y-29380000D03*
%TD*%
D11*
%TO.P,,1*%
%TO.N,N/C*%
X115460000Y-81500000D03*
%TD*%
%TO.P,,1*%
%TO.N,N/C*%
X112460000Y-55000000D03*
%TD*%
%TO.P,,4*%
%TO.N,N/C*%
X118000000Y-78960000D03*
%TD*%
D15*
%TO.P,TP4056 & MT3608,1*%
%TO.N,N/C*%
X112800000Y-95200000D03*
%TO.P,TP4056 & MT3608,2*%
X121300000Y-95200000D03*
%TO.P,TP4056 & MT3608,3*%
X125300000Y-95200000D03*
%TO.P,TP4056 & MT3608,4*%
X133800000Y-95200000D03*
%TD*%
D16*
%TO.P,REF\u002A\u002A,P$1*%
%TO.N,N/C*%
X133000000Y-50500000D03*
%TD*%
D11*
%TO.P,,2*%
%TO.N,N/C*%
X94040000Y-28500000D03*
%TD*%
%TO.P,,2*%
%TO.N,N/C*%
X115460000Y-78960000D03*
%TD*%
%TO.P,,1*%
%TO.N,N/C*%
X127960000Y-90000000D03*
%TD*%
D17*
%TO.P,REF\u002A\u002A,1*%
%TO.N,N/C*%
X105730000Y-55370000D03*
D11*
%TO.P,REF\u002A\u002A,2*%
X108270000Y-55370000D03*
%TO.P,REF\u002A\u002A,3*%
X105730000Y-57910000D03*
%TO.P,REF\u002A\u002A,4*%
X108270000Y-57910000D03*
%TO.P,REF\u002A\u002A,5*%
X105730000Y-60450000D03*
%TO.P,REF\u002A\u002A,6*%
X108270000Y-60450000D03*
%TO.P,REF\u002A\u002A,7*%
X105730000Y-62990000D03*
%TO.P,REF\u002A\u002A,8*%
X108270000Y-62990000D03*
%TO.P,REF\u002A\u002A,9*%
X105730000Y-65530000D03*
%TO.P,REF\u002A\u002A,10*%
X108270000Y-65530000D03*
%TO.P,REF\u002A\u002A,11*%
X105730000Y-68070000D03*
%TO.P,REF\u002A\u002A,12*%
X108270000Y-68070000D03*
%TO.P,REF\u002A\u002A,13*%
X105730000Y-70610000D03*
%TO.P,REF\u002A\u002A,14*%
X108270000Y-70610000D03*
%TO.P,REF\u002A\u002A,15*%
X105730000Y-73150000D03*
%TO.P,REF\u002A\u002A,16*%
X108270000Y-73150000D03*
%TO.P,REF\u002A\u002A,17*%
X105730000Y-75690000D03*
%TO.P,REF\u002A\u002A,18*%
X108270000Y-75690000D03*
%TO.P,REF\u002A\u002A,19*%
X105730000Y-78230000D03*
%TO.P,REF\u002A\u002A,20*%
X108270000Y-78230000D03*
%TO.P,REF\u002A\u002A,21*%
X105730000Y-80770000D03*
%TO.P,REF\u002A\u002A,22*%
X108270000Y-80770000D03*
%TO.P,REF\u002A\u002A,23*%
X105730000Y-83310000D03*
%TO.P,REF\u002A\u002A,24*%
X108270000Y-83310000D03*
%TO.P,REF\u002A\u002A,25*%
X105730000Y-85850000D03*
%TO.P,REF\u002A\u002A,26*%
X108270000Y-85850000D03*
%TO.P,REF\u002A\u002A,27*%
X105730000Y-88390000D03*
%TO.P,REF\u002A\u002A,28*%
X108270000Y-88390000D03*
%TO.P,REF\u002A\u002A,29*%
X105730000Y-90930000D03*
%TO.P,REF\u002A\u002A,30*%
X108270000Y-90930000D03*
%TO.P,REF\u002A\u002A,31*%
X105730000Y-93470000D03*
%TO.P,REF\u002A\u002A,32*%
X108270000Y-93470000D03*
%TO.P,REF\u002A\u002A,33*%
X105730000Y-96010000D03*
%TO.P,REF\u002A\u002A,34*%
X108270000Y-96010000D03*
%TO.P,REF\u002A\u002A,35*%
X105730000Y-98550000D03*
%TO.P,REF\u002A\u002A,36*%
X108270000Y-98550000D03*
%TO.P,REF\u002A\u002A,37*%
X105730000Y-101090000D03*
%TO.P,REF\u002A\u002A,38*%
X108270000Y-101090000D03*
%TO.P,REF\u002A\u002A,39*%
X105730000Y-103630000D03*
%TO.P,REF\u002A\u002A,40*%
X108270000Y-103630000D03*
%TD*%
D18*
%TO.N,*%
X113000000Y-34500000D02*
X113000000Y-46500000D01*
X130500000Y-90000000D02*
X130500000Y-91900000D01*
X127950000Y-60450000D02*
X125500000Y-60450000D01*
X129500000Y-62000000D02*
X127950000Y-60450000D01*
X115000000Y-59500000D02*
X115000000Y-55000000D01*
X86820000Y-45100000D02*
X86820000Y-43680000D01*
X91900000Y-45100000D02*
X91900000Y-42500000D01*
X112000000Y-60450000D02*
X115000000Y-60450000D01*
X113000000Y-46500000D02*
X112500000Y-47000000D01*
X112690000Y-34190000D02*
X113000000Y-34500000D01*
X115950000Y-60450000D02*
X116000000Y-60450000D01*
X86820000Y-42500000D02*
X86820000Y-42820000D01*
X124500000Y-60450000D02*
X125500000Y-60450000D01*
X91900000Y-43900000D02*
X91900000Y-45100000D01*
X86820000Y-42500000D02*
X86820000Y-30220000D01*
X125730000Y-45890000D02*
X125730000Y-59000000D01*
X91900000Y-42500000D02*
X91900000Y-30640000D01*
X86820000Y-30220000D02*
X88540000Y-28500000D01*
X133500000Y-62000000D02*
X129500000Y-62000000D01*
X91900000Y-42600000D02*
X91900000Y-42500000D01*
X86820000Y-42820000D02*
X87500000Y-43500000D01*
X115000000Y-59500000D02*
X115950000Y-60450000D01*
X86820000Y-45100000D02*
X86820000Y-42500000D01*
X130500000Y-91900000D02*
X133800000Y-95200000D01*
X87500000Y-43500000D02*
X91000000Y-43500000D01*
X112500000Y-47000000D02*
X111500000Y-47000000D01*
X91900000Y-30640000D02*
X94040000Y-28500000D01*
X134000000Y-60810000D02*
X134000000Y-61500000D01*
X116000000Y-60450000D02*
X124500000Y-60450000D01*
X125730000Y-59000000D02*
X125730000Y-59220000D01*
X111500000Y-47000000D02*
X111000000Y-47500000D01*
X125730000Y-59220000D02*
X124500000Y-60450000D01*
X134270000Y-60540000D02*
X134000000Y-60810000D01*
X86820000Y-45100000D02*
X86820000Y-45820000D01*
X111950000Y-60450000D02*
X112000000Y-60450000D01*
X91000000Y-43500000D02*
X91900000Y-42600000D01*
X111000000Y-59500000D02*
X111950000Y-60450000D01*
X111000000Y-60450000D02*
X112000000Y-60450000D01*
X134000000Y-61500000D02*
X133500000Y-62000000D01*
X108270000Y-60450000D02*
X111000000Y-60450000D01*
X111000000Y-47500000D02*
X111000000Y-59500000D01*
X115000000Y-60450000D02*
X116000000Y-60450000D01*
X111100000Y-34190000D02*
X112690000Y-34190000D01*
%TD*%
M02*
